<svg width="121" height="33" viewBox="0 0 121 33" fill="none" xmlns="http://www.w3.org/2000/svg">
<path d="M14.1681 12.3496C13.0221 11.3673 11.8761 11.1217 10.6482 11.1217C8.84732 11.1217 7.21016 11.7766 7.21016 13.25C7.29201 14.8053 9.25662 15.0509 10.6482 15.2965C12.6947 15.6239 15.4779 15.9514 15.3141 18.6527C15.2323 21.1903 12.6128 21.8452 10.6482 21.8452C8.68361 21.8452 6.63715 21.1084 5.65485 19.5531L6.47343 18.8164C7.45573 20.208 9.0929 20.781 10.6482 20.781C12.0398 20.781 14.0863 20.4536 14.1681 18.6527C14.25 17.0155 12.3672 16.6881 10.4845 16.3606C8.27431 16.0332 6.06414 15.5421 6.06414 13.3319C6.06414 11.1217 8.27432 10.1394 10.5664 10.1394C12.2035 10.1394 13.677 10.6306 14.823 11.6947L14.1681 12.3496Z" fill="#010715"/>
<path d="M10.6482 22.3363C8.27434 22.3363 6.22788 21.4359 5.24557 19.7987L5 19.3894L6.63717 17.9978L6.9646 18.489C7.70133 19.5531 9.09292 20.208 10.7301 20.208C11.6305 20.208 13.677 20.0443 13.7588 18.5708C13.7588 17.4248 12.4491 17.1792 10.4845 16.8518C8.35619 16.5244 5.65487 16.0332 5.65487 13.25C5.65487 12.3496 5.9823 11.531 6.55531 10.8761C7.45575 9.97568 8.84734 9.48453 10.5664 9.48453C12.531 9.48453 14.0863 10.0575 15.2323 11.1217L15.5597 11.6128L14.1681 13.0863L13.7588 12.7589C12.6947 11.8584 11.7124 11.6947 10.4845 11.6947C9.42035 11.6947 8.43805 12.0221 7.9469 12.4314C7.70133 12.677 7.61947 12.9226 7.61947 13.25C7.61947 14.2323 8.9292 14.5597 10.4845 14.8053L10.8938 14.8872C12.8584 15.2146 15.8872 15.7058 15.7235 18.7345C15.7235 21.4359 13.104 22.3363 10.6482 22.3363ZM6.39159 19.635C7.29203 20.6991 8.84734 21.354 10.6482 21.354C11.6305 21.354 14.7411 21.1903 14.823 18.6527C14.9049 17.4248 14.25 16.8518 13.1858 16.4425C14.1681 16.8518 14.823 17.4248 14.823 18.6527C14.7411 20.2898 13.2677 21.354 10.7301 21.354C8.9292 21.2721 7.37389 20.6173 6.39159 19.635ZM10.4845 10.6305C9.09292 10.6305 7.86504 11.0398 7.21018 11.6947C6.80088 12.104 6.55531 12.677 6.55531 13.25C6.55531 14.4779 7.37389 15.0509 8.68363 15.3783C7.61947 15.0509 6.63717 14.4779 6.63717 13.25C6.63717 12.677 6.80088 12.104 7.29203 11.6947C7.9469 10.958 9.17478 10.6305 10.6482 10.6305C10.9757 10.6305 11.3031 10.6305 11.6305 10.7124C11.2212 10.6305 10.8938 10.6305 10.4845 10.6305Z" fill="#010715"/>
<path d="M18.9978 15.9513C18.9978 12.5132 21.5354 10.0575 24.8097 10.0575C28.0022 10.0575 30.8673 12.5132 30.7854 16.4425H20.1438C20.3894 19.1438 22.4359 20.6172 24.8097 20.6172C26.2832 20.6172 28.0841 20.0442 28.9027 18.8982L29.7213 19.5531C28.6571 21.0265 26.6106 21.7632 24.8097 21.7632C21.5354 21.8451 18.9978 19.5531 18.9978 15.9513ZM29.3938 15.542C29.1482 12.8407 27.8385 10.9579 24.7279 11.2035C22.354 11.3672 20.3894 12.7588 20.062 15.542H29.3938Z" fill="#010715"/>
<path d="M24.7278 22.3363C21.0442 22.3363 18.4247 19.635 18.4247 15.9513C18.4247 12.2677 21.1261 9.56638 24.7278 9.56638C26.5287 9.56638 28.1659 10.2212 29.3938 11.4491C30.6216 12.7589 31.2765 14.4779 31.2765 16.4425V16.9336H20.7168C21.1261 19.1438 23.0088 20.1261 24.7278 20.1261C26.2013 20.1261 27.7566 19.4712 28.4115 18.5708L28.7389 18.1615L30.3761 19.4712L30.0486 19.8805C28.9026 21.4358 26.8562 22.3363 24.7278 22.3363ZM24.5641 10.6305C21.6172 10.7124 19.407 13.0044 19.407 15.9513C19.407 19.062 21.5354 21.2721 24.646 21.2721C26.1194 21.2721 27.511 20.781 28.4933 19.9624C27.4292 20.8628 25.8739 21.1903 24.646 21.1903C21.8628 21.1903 19.7345 19.2257 19.4889 16.5243L19.407 16.0332L19.4889 15.542C19.8163 12.7589 21.7809 10.8761 24.5641 10.6305ZM29.4756 13.25C29.7212 13.9049 29.8849 14.6416 29.9668 15.4602V15.9513H30.2124C30.1305 14.969 29.8849 14.0686 29.4756 13.25ZM20.7168 14.969H28.8208C28.4933 12.5951 27.1017 11.531 24.7278 11.6128C23.0907 11.7766 21.2079 12.677 20.7168 14.969Z" fill="#010715"/>
<path d="M36.1881 4.49109V21.5995H35.0421V4.49109H36.1881Z" fill="#010715"/>
<path d="M36.6792 22.1726H34.469V4H36.6792V22.1726ZM35.615 21.1084L35.6969 4.49115H35.615V21.1084Z" fill="#010715"/>
<path d="M41.7544 4.49109V21.5995H40.6084V4.49109H41.7544Z" fill="#010715"/>
<path d="M42.2456 22.1726H40.1173V4H42.3275L42.2456 22.1726ZM41.0996 21.1084L41.1815 4.49115H41.0996V21.1084Z" fill="#010715"/>
<path d="M46.011 15.9513C46.011 12.5132 48.5487 10.0575 51.823 10.0575C55.0155 10.0575 57.8805 12.0221 57.4712 16.4425H47.1571C47.4026 19.1438 49.4491 20.6172 51.823 20.6172C53.2965 20.6172 55.0973 20.0442 55.9159 18.8982L56.7345 19.5531C55.6703 21.0265 53.6239 21.7632 51.823 21.7632C48.6305 21.8451 46.011 19.5531 46.011 15.9513ZM56.4071 15.542C56.4071 12.7588 54.5243 11.2035 51.823 11.2035C49.4491 11.2035 47.4845 12.7588 47.1571 15.542H56.4071Z" fill="#010715"/>
<path d="M51.823 22.3363C48.1394 22.3363 45.5199 19.635 45.5199 15.9513C45.5199 12.2677 48.2212 9.56638 51.823 9.56638C53.7876 9.56638 55.4248 10.2212 56.5708 11.4491C57.7168 12.677 58.208 14.4779 57.9624 16.5243L57.8805 17.0155H47.8119C48.2212 19.2257 50.104 20.208 51.823 20.208C53.2964 20.208 54.8518 19.5531 55.5066 18.6527L55.8341 18.2434L57.4712 19.5531L57.1438 19.9624C55.9978 21.4358 53.9513 22.3363 51.823 22.3363ZM48.6305 11.6128C47.3208 12.5951 46.5022 14.1504 46.5022 15.9513C46.5022 19.062 48.6305 21.2721 51.7411 21.2721C53.2146 21.2721 54.6062 20.781 55.5885 19.9624C54.5243 20.8628 52.969 21.1903 51.7411 21.1903C48.9579 21.1903 46.8296 19.2257 46.5841 16.5243L46.5022 16.0332L46.5841 15.542C46.8296 13.823 47.5664 12.5133 48.6305 11.6128ZM56.9801 15.9513C57.0619 14.396 56.6526 13.0863 55.8341 12.104L55.7522 12.0221C56.5708 12.8407 56.9801 14.0686 56.9801 15.4602V15.9513ZM47.8119 14.969H55.9159C55.6703 12.8407 54.1969 11.6128 51.823 11.6128C49.7765 11.6947 48.2212 13.0044 47.8119 14.969Z" fill="#010715"/>
<path d="M88.4138 27.9845V12.2677H89.4779V13.4138C90.3784 11.6947 92.1792 10.5487 94.3894 10.5487C97.5 10.6306 99.8739 12.7589 99.8739 16.3607C99.8739 20.208 97.3363 22.2545 94.062 22.2545C92.0974 22.2545 90.2965 21.2722 89.3961 19.3894V27.9845H88.4138ZM98.8916 16.5244C98.8916 13.3319 96.8452 11.7766 94.2257 11.7766C91.6062 11.7766 89.6416 13.7412 89.6416 16.5244C89.6416 19.3076 91.6062 21.2722 94.2257 21.2722C96.7633 21.2722 98.8916 19.7168 98.8916 16.5244Z" fill="#010715"/>
<path d="M90.0509 28.4757H87.9226V11.7766L90.0509 11.8584V11.9403C91.1151 10.7943 92.7522 10.1394 94.4713 10.1394C98.073 10.3031 100.529 12.8407 100.529 16.5244C100.529 20.3717 97.9912 22.9093 94.2257 22.9093C92.5885 22.9093 91.1151 22.2544 90.0509 21.1903V28.4757ZM88.9868 27.4115V17.3429L89.2323 17.8341C89.1505 17.4248 89.0686 16.9337 89.0686 16.4425C89.0686 16.0332 89.1505 15.5421 89.2323 15.2146L89.0686 15.6239V12.8407H88.9868V27.4115ZM91.6062 21.1084C92.343 21.5996 93.2434 21.8452 94.2257 21.8452C97.4182 21.8452 99.4646 19.7168 99.4646 16.4425C99.4646 13.3319 97.5 11.2036 94.4713 11.1217C94.1438 11.1217 93.7346 11.1217 93.4071 11.2036C93.6527 11.2036 93.8983 11.1217 94.2257 11.1217C97.3363 11.1217 99.3828 13.1682 99.3828 16.4425C99.3828 19.7168 97.3363 21.7633 94.2257 21.7633C93.2434 21.8452 92.343 21.5996 91.6062 21.1084ZM94.2257 12.2677C91.8518 12.2677 90.1328 14.0686 90.1328 16.5244C90.1328 18.9801 91.8518 20.781 94.2257 20.781C96.1903 20.781 98.3186 19.635 98.3186 16.5244C98.3186 13.823 96.8452 12.2677 94.2257 12.2677Z" fill="#010715"/>
<path d="M103.967 27.9845V12.2677H105.031V13.4138C105.931 11.6947 107.732 10.5487 109.942 10.5487C113.053 10.6306 115.427 12.7589 115.427 16.3607C115.427 20.208 112.889 22.2545 109.615 22.2545C107.65 22.2545 105.85 21.2722 104.949 19.3894V27.9845H103.967ZM114.363 16.5244C114.363 13.3319 112.316 11.7766 109.697 11.7766C107.077 11.7766 105.113 13.7412 105.113 16.5244C105.113 19.3076 107.077 21.2722 109.697 21.2722C112.316 21.2722 114.363 19.7168 114.363 16.5244Z" fill="#010715"/>
<path d="M105.522 28.4757H103.394V11.7766L105.522 11.8584V11.9403C106.586 10.7943 108.224 10.1394 109.943 10.1394C113.544 10.3031 116 12.8407 116 16.5244C116 20.3717 113.462 22.9093 109.697 22.9093C108.06 22.9093 106.586 22.2544 105.522 21.1903V28.4757ZM104.458 27.4115V17.3429L104.704 17.8341C104.622 17.4248 104.54 16.9337 104.54 16.4425C104.54 16.0332 104.622 15.5421 104.704 15.2146L104.54 15.6239V12.8407H104.458V27.4115ZM107.159 21.1084C107.896 21.5996 108.797 21.8452 109.779 21.8452C112.971 21.8452 115.018 19.7168 115.018 16.4425C115.018 13.3319 113.053 11.2036 110.024 11.1217C109.697 11.1217 109.288 11.1217 108.96 11.2036C109.206 11.2036 109.451 11.1217 109.779 11.1217C112.889 11.1217 114.936 13.1682 114.936 16.4425C114.936 19.7168 112.889 21.7633 109.779 21.7633C108.715 21.8452 107.896 21.5996 107.159 21.1084ZM109.697 12.2677C107.323 12.2677 105.604 14.0686 105.604 16.5244C105.604 18.9801 107.323 20.781 109.697 20.781C111.662 20.781 113.79 19.635 113.79 16.5244C113.872 13.823 112.316 12.2677 109.697 12.2677Z" fill="#010715"/>
<path d="M82.9292 22.7456V19.4713C81.9469 21.354 80.146 22.3363 78.2633 22.3363C75.0708 22.3363 72.4514 20.2898 72.4514 16.4425C72.4514 12.7589 74.9071 10.7124 77.9359 10.6306C80.146 10.6306 81.9469 11.7766 82.8474 13.4956V12.3496H83.9115V22.8275H82.9292V22.7456ZM78.1814 21.2721C80.8009 21.2721 82.7655 19.3075 82.7655 16.5244C82.7655 13.7412 80.8009 11.7766 78.1814 11.7766C75.6438 11.7766 73.5155 13.3319 73.5155 16.5244C73.5155 19.7168 75.6438 21.2721 78.1814 21.2721Z" fill="#010715"/>
<path d="M82.3562 21.1903C81.292 22.2544 79.8186 22.9093 78.1814 22.9093C74.4159 22.9093 71.8783 20.3717 71.8783 16.5244C71.8783 12.8407 74.334 10.3031 77.9358 10.1394C79.6548 10.1394 81.2101 10.7943 82.3562 11.9403V11.8584L84.4845 11.7766V22.9093H82.3562V21.1903ZM83.5022 12.8407L83.4203 15.6239L83.2566 15.2146C83.3385 15.6239 83.4203 16.0332 83.4203 16.4425C83.4203 16.9337 83.3385 17.3429 83.2566 17.8341L83.5022 17.3429V22.2544V12.8407ZM78.1814 21.8452C75.0708 21.8452 73.0243 19.7168 73.0243 16.5244C73.0243 13.3319 75.0708 11.2036 78.1814 11.2036C78.427 11.2036 78.7544 11.2036 79 11.2854C78.6725 11.2036 78.3451 11.2036 77.9358 11.2036C74.9071 11.2854 72.9425 13.4137 72.9425 16.5244C72.9425 19.7168 74.9889 21.8452 78.1814 21.8452ZM74.0885 16.5244C74.0885 19.7168 76.2168 20.781 78.1814 20.781C80.5553 20.781 82.2743 18.9801 82.2743 16.5244C82.2743 14.0686 80.5553 12.2677 78.1814 12.2677C75.6438 12.2677 74.0885 13.823 74.0885 16.5244Z" fill="#010715"/>
<path d="M61.9735 14.8872V21.927H62.7921V14.8872C62.7921 11.0398 67.0487 10.2212 68.9315 12.4314L69.5045 11.7765C67.2125 9.23892 61.9735 10.3031 61.9735 14.8872Z" fill="#010715"/>
<path d="M63.5288 22.6637H61.3186V14.8872C61.3186 12.677 62.4646 10.8761 64.4292 10.1394C66.3938 9.40265 68.6859 9.8938 70.0774 11.3673L70.4867 11.7765L69.0133 13.4137L68.5221 12.8407C67.7854 11.9403 66.4757 11.6128 65.3297 12.104C64.1836 12.5133 63.5288 13.5774 63.5288 14.8872V22.6637Z" fill="#010715"/>
</svg>
