<svg width="40" height="35" viewBox="0 0 40 35" fill="none" xmlns="http://www.w3.org/2000/svg">
<path fill-rule="evenodd" clip-rule="evenodd" d="M25 16.3004H24.8928C19.7596 16.3004 14.6263 16.3004 9.49305 16.3034C8.96872 16.3034 8.45597 16.2196 7.96929 16.0249C6.76709 15.5516 5.89803 14.707 5.3737 13.4879C5.22306 13.1344 5.12457 12.766 5.05794 12.3886C5.03994 12.2935 5.03437 12.1941 5.02883 12.0954C5.02634 12.0511 5.02387 12.0069 5.02028 11.9633C5.01813 11.9355 5.01478 11.9073 5.01142 11.879C5.00573 11.831 5 11.7827 5 11.7356C5.0029 11.2804 5.04925 10.8311 5.17961 10.3968C5.67207 8.7254 6.73812 7.65009 8.34878 7.15887C8.62456 7.07618 8.91609 7.05049 9.20587 7.02496L9.24971 7.02109C9.48701 6.99952 9.72901 6.99979 9.96725 7.00006L10.0464 7.00012H24.8668H25V16.3004ZM6.06313 27.305V18.0017H6.16452C11.3239 18.0017 16.4832 18.0017 21.6425 18.0047C22.0655 18.0047 22.4826 18.0796 22.8853 18.2113C24.2874 18.6756 25.252 19.6251 25.785 21.0419C25.9125 21.3774 25.9965 21.7278 26.0226 22.0902C26.0255 22.1327 26.0285 22.1751 26.0316 22.2175C26.0469 22.4297 26.0622 22.6419 26.0573 22.854C26.0458 23.2284 25.9878 23.5939 25.8806 23.9533C25.4374 25.4599 24.493 26.4723 23.0794 27.0294C22.752 27.1582 22.4102 27.2391 22.0597 27.2721C21.8916 27.287 21.7207 27.302 21.5527 27.302C18.1402 27.304 14.7277 27.3033 11.3152 27.3027L11.2861 27.3027C9.58952 27.3023 7.89295 27.302 6.19639 27.302C6.15294 27.305 6.11528 27.305 6.06313 27.305ZM27.5629 7.52067L26.6628 7.01508V16.3274C28.9891 15.037 31.3073 13.7488 33.6344 12.4556C34.0892 12.2028 34.5444 11.9499 35 11.6967C32.5142 10.302 30.04 8.91217 27.5629 7.52067Z" fill="#E0E0E2"/>
</svg>
